<svg width="816" height="818" viewBox="0 0 816 818" fill="none" xmlns="http://www.w3.org/2000/svg">
<path d="M649.5 565.906L399.751 436.268L438.557 672.594L378.659 436.189L192.42 609.857L361.354 421.411L64.8494 426.751L357.973 400.593L211.583 197.769L370.496 385.927L364.411 94.0499L399.751 352.406L510.758 190.644L414 379.906L686 260.906L427 421.411L649.5 565.906Z" fill="#EEF06C"/>
<path d="M309.702 380.343L410.59 331.553L475.59 494.553L430.59 519.553L373.529 553.984L309.702 380.343Z" fill="#D9D9D9"/>
<path d="M302.347 389.906L310.563 380.906L373.847 552.906L371.347 556.406L367.347 561.407L361.847 546.407L352.347 522.907L340.847 491.407L329.347 461.907L302.347 389.906Z" fill="#EAE8E8"/>
<path d="M372.412 549.406L474.912 492.906L476.412 498.406L474.912 499.406L462.412 506.406L430.412 524.406L366.412 558.906L372.412 549.406Z" fill="#AFA8A8"/>
<path d="M323.347 381.906V382.645" stroke="black" stroke-linecap="square"/>
<path d="M352.347 368.906V370.015" stroke="black" stroke-linecap="square"/>
<path d="M377.347 356.906V358.754" stroke="black" stroke-linecap="square"/>
<path d="M398.966 348.906C398.966 349.605 398.703 350.807 399.336 351.123" stroke="black" stroke-linecap="square"/>
<ellipse cx="325.459" cy="383.279" rx="4.31222" ry="3.00486" transform="rotate(-21.4324 325.459 383.279)" fill="#0D0000"/>
<ellipse cx="352.626" cy="370.327" rx="4.5" ry="3" transform="rotate(-21.1365 352.626 370.327)" fill="#170101"/>
<ellipse cx="376.648" cy="359.274" rx="4.56462" ry="2.82213" transform="rotate(-22.752 376.648 359.274)" fill="#0F0101"/>
<ellipse cx="398.529" cy="349.861" rx="4.5" ry="2.75925" transform="rotate(-24.5616 398.529 349.861)" fill="#110000"/>
<path d="M324.268 381.23C324.268 380.472 324.334 379.726 324.223 378.97C324.192 378.765 324.196 378.546 324.146 378.346C324.077 378.073 324.008 377.798 323.944 377.523C323.837 377.062 323.641 376.614 323.381 376.218C323.18 375.912 322.99 375.599 322.791 375.293C322.616 375.025 322.343 374.81 322.124 374.576C321.431 373.837 320.356 373.474 319.371 373.376C318.452 373.285 317.587 373.267 316.711 373.58C316.486 373.66 316.246 373.737 316.044 373.866C315.886 373.968 315.758 374.141 315.613 374.238C315.46 374.34 315.33 374.464 315.201 374.593C315.096 374.698 315.028 374.798 314.954 374.933C314.83 375.162 314.646 375.403 314.576 375.656C314.498 375.936 314.368 376.219 314.368 376.513C314.368 376.64 314.368 376.767 314.368 376.895C314.368 377.082 314.458 377.209 314.458 377.39" stroke="black" stroke-width="2" stroke-linecap="round"/>
<path d="M352.247 367.818C352.247 367.06 352.313 366.314 352.202 365.558C352.172 365.353 352.175 365.134 352.125 364.934C352.057 364.661 351.987 364.386 351.924 364.111C351.817 363.65 351.621 363.202 351.36 362.806C351.159 362.5 350.97 362.188 350.77 361.881C350.596 361.613 350.322 361.398 350.104 361.164C349.411 360.425 348.336 360.062 347.35 359.964C346.432 359.873 345.566 359.855 344.69 360.168C344.465 360.248 344.226 360.325 344.024 360.454C343.865 360.556 343.738 360.729 343.592 360.826C343.439 360.928 343.309 361.052 343.18 361.181C343.075 361.286 343.007 361.386 342.934 361.521C342.81 361.75 342.626 361.991 342.555 362.244C342.478 362.524 342.347 362.807 342.347 363.101C342.347 363.228 342.347 363.355 342.347 363.483C342.347 363.67 342.437 363.797 342.437 363.978" stroke="black" stroke-width="2" stroke-linecap="round"/>
<path d="M376.247 356.818C376.247 356.06 376.313 355.314 376.202 354.558C376.172 354.353 376.175 354.134 376.125 353.934C376.057 353.661 375.987 353.386 375.924 353.111C375.817 352.65 375.621 352.202 375.36 351.806C375.159 351.5 374.97 351.188 374.77 350.881C374.596 350.613 374.322 350.398 374.104 350.164C373.411 349.425 372.336 349.062 371.35 348.964C370.432 348.873 369.566 348.855 368.69 349.168C368.465 349.248 368.226 349.325 368.024 349.454C367.865 349.556 367.738 349.729 367.592 349.826C367.439 349.928 367.309 350.052 367.18 350.181C367.075 350.286 367.007 350.386 366.934 350.521C366.81 350.75 366.626 350.991 366.555 351.244C366.478 351.524 366.347 351.807 366.347 352.101C366.347 352.228 366.347 352.355 366.347 352.483C366.347 352.67 366.437 352.797 366.437 352.978" stroke="black" stroke-width="2" stroke-linecap="round"/>
<path d="M397.812 346.818C397.812 346.06 397.878 345.314 397.767 344.558C397.737 344.353 397.74 344.134 397.69 343.934C397.622 343.661 397.552 343.386 397.488 343.111C397.382 342.65 397.186 342.202 396.925 341.806C396.724 341.5 396.535 341.188 396.335 340.881C396.161 340.613 395.887 340.398 395.668 340.164C394.975 339.425 393.901 339.062 392.915 338.964C391.996 338.873 391.131 338.855 390.255 339.168C390.03 339.248 389.79 339.325 389.589 339.454C389.43 339.556 389.303 339.729 389.157 339.826C389.004 339.928 388.874 340.052 388.745 340.181C388.64 340.286 388.572 340.386 388.499 340.521C388.375 340.75 388.19 340.991 388.12 341.244C388.042 341.524 387.912 341.807 387.912 342.101C387.912 342.228 387.912 342.355 387.912 342.483C387.912 342.67 388.002 342.797 388.002 342.978" stroke="black" stroke-width="2" stroke-linecap="round"/>
<path d="M309.912 409.348C310.204 409.088 310.415 408.766 310.647 408.447C311.164 407.735 311.747 407.097 312.305 406.419C312.63 406.024 312.916 405.6 313.235 405.201C313.572 404.779 314.029 404.481 314.424 404.119C314.963 403.625 315.431 403.067 315.946 402.553C316.125 402.374 316.326 402.228 316.525 402.073C316.756 401.894 316.881 401.691 317.087 401.475C317.314 401.236 317.471 400.906 317.822 400.906" stroke="black" stroke-width="0.7" stroke-linecap="round"/>
<path d="M335.912 389.971C337.084 389.912 338.227 389.296 339.319 388.906" stroke="black" stroke-width="0.7" stroke-linecap="round"/>
<path d="M321.812 397.289C323.435 396.748 325.002 395.517 326.45 394.651C327.817 393.832 329.177 392.998 330.543 392.178" stroke="black" stroke-width="0.7" stroke-linecap="round"/>
<path d="M342.912 386.378C346.309 384.532 349.966 383.284 353.56 381.906" stroke="black" stroke-width="0.7" stroke-linecap="round"/>
<path d="M358.44 378.549C359.772 378.121 360.824 376.632 362.273 376.632" stroke="black" stroke-width="0.7" stroke-linecap="round"/>
<path d="M368.236 374.077C368.807 373.995 369.22 373.692 369.727 373.438" stroke="black" stroke-width="0.7" stroke-linecap="round"/>
<path d="M375.689 371.522C376.838 370.556 378.143 370.065 379.523 369.605" stroke="black" stroke-width="0.7" stroke-linecap="round"/>
<path d="M387.402 365.985C388.764 365.137 390.158 364.338 391.566 363.571C391.967 363.353 392.451 363.003 392.939 363.003" stroke="black" stroke-width="0.7" stroke-linecap="round"/>
<path d="M398.688 360.448C401.63 359.756 404.243 357.536 406.651 355.869C407.047 355.595 407.482 355.348 407.763 355.006C408.247 354.413 408.945 354.433 409.336 353.846" stroke="black" stroke-width="0.7" stroke-linecap="round"/>
<path d="M413.912 352.119C414.111 352.097 414.179 352.012 414.338 351.906" stroke="black" stroke-width="0.7" stroke-linecap="round"/>
<path d="M302.37 688.969C281.033 731.615 281.912 744.906 252.412 688.969C252.412 688.969 251.852 685.925 273.19 643.279C294.527 600.633 327.145 556.028 338.648 561.783C350.152 567.539 323.708 646.324 302.37 688.969Z" fill="#C5B3B3"/>
<path d="M415.1 653.443C415.1 696.818 428.515 734.131 396.742 730.366C376.972 733.055 369.912 726.941 369.912 683.567C369.912 640.192 375.644 574.906 389.682 574.906C403.72 574.906 415.1 610.068 415.1 653.443Z" fill="black"/>
<path d="M563.298 570.098C597.961 606.297 612.361 596.817 611.249 649.825C610.69 676.485 568.338 634.663 533.675 598.464C499.012 562.265 477.543 526.57 485.723 518.737C493.904 510.904 528.635 533.899 563.298 570.098Z" fill="#9A9A9A"/>
<path d="M499.532 641.88C520.776 691.571 525.412 686.906 498.629 702.142C472.841 716.812 482.964 707.736 461.72 658.045C440.477 608.354 431.719 564.453 442.161 559.989C452.602 555.525 478.288 592.189 499.532 641.88Z" fill="#D9D9D9"/>
<path d="M523.912 587.906L547.912 554.906L553.912 560.406L529.912 594.406L523.912 587.906Z" fill="#767272"/>
<path d="M544.319 609.457L566.912 573.906L572.912 579.406L550.412 615.906L544.319 609.457Z" fill="#696868"/>
<path d="M507.248 567.712L530.41 539.534L534.412 542.531L536.411 544.532L512.742 574.719L509.746 570.715L507.248 567.712Z" fill="#6F6C6C"/>
<path d="M566.408 630.911L584.638 589.542L591.912 595.406L575.412 639.906L566.408 630.911Z" fill="#676767"/>
<ellipse cx="505.912" cy="539.906" rx="7" ry="6" transform="rotate(39.9117 505.912 539.906)" fill="#FEB6FF"/>
<ellipse cx="451.888" cy="583.496" rx="7" ry="6" transform="rotate(70.7067 451.888 583.496)" fill="#FEB6FF"/>
<ellipse cx="392.412" cy="600.906" rx="5.5" ry="6" fill="#FEB6FF"/>
<ellipse cx="326.801" cy="584.065" rx="7" ry="6" transform="rotate(-55.9899 326.801 584.065)" fill="#FEB6FF"/>
<ellipse cx="324.166" cy="573.429" rx="0.5" ry="1.5" transform="rotate(34.0785 324.166 573.429)" fill="white"/>
<ellipse cx="331.269" cy="569.37" rx="0.5" ry="1.5" transform="rotate(40.6777 331.269 569.37)" fill="white"/>
<ellipse cx="494.328" cy="538.319" rx="0.5" ry="1.5" transform="rotate(-45.1233 494.328 538.319)" fill="white"/>
<ellipse cx="495.403" cy="527.221" rx="0.5" ry="1.5" transform="rotate(-52.1586 495.403 527.221)" fill="white"/>
<ellipse cx="506.392" cy="529.239" rx="0.5" ry="1.5" transform="rotate(-50.9632 506.392 529.239)" fill="white"/>
<ellipse cx="492.372" cy="530.267" rx="0.5" ry="1.5" transform="rotate(-49.04 492.372 530.267)" fill="white"/>
<ellipse cx="443.165" cy="570.429" rx="0.5" ry="1.5" transform="rotate(-34.001 443.165 570.429)" fill="white"/>
<ellipse cx="448.173" cy="568.426" rx="0.5" ry="1.5" transform="rotate(-34.4734 448.173 568.426)" fill="white"/>
<ellipse cx="456.227" cy="573.398" rx="0.5" ry="1.5" transform="rotate(-37.8485 456.227 573.398)" fill="white"/>
<ellipse cx="442.12" cy="578.447" rx="0.5" ry="1.5" transform="rotate(-31.3636 442.12 578.447)" fill="white"/>
<ellipse cx="394.412" cy="583.406" rx="0.5" ry="1.5" fill="white"/>
<ellipse cx="401.412" cy="591.406" rx="0.5" ry="1.5" fill="white"/>
<ellipse cx="388.412" cy="583.406" rx="0.5" ry="1.5" fill="white"/>
<ellipse cx="384.412" cy="591.406" rx="0.5" ry="1.5" fill="white"/>
<ellipse cx="337.412" cy="578.406" rx="0.5" ry="1.5" transform="rotate(24.1128 337.412 578.406)" fill="white"/>
<ellipse cx="336.412" cy="571.406" rx="0.5" ry="1.5" transform="rotate(36.34 336.412 571.406)" fill="white"/>
<rect x="329.678" y="418.889" width="8.75439" height="8.2482" transform="rotate(-24.6514 329.678 418.889)" fill="#FFF9F9"/>
<rect x="329.678" y="418.889" width="8.75439" height="8.2482" transform="rotate(-24.6514 329.678 418.889)" fill="black" fill-opacity="0.2"/>
<rect x="329.678" y="418.889" width="8.75439" height="8.2482" transform="rotate(-24.6514 329.678 418.889)" stroke="#1A0202" stroke-width="0.5"/>
<rect x="399.678" y="440.72" width="8.34941" height="8.2482" transform="rotate(-24.6514 399.678 440.72)" fill="#FFF9F9"/>
<rect x="399.678" y="440.72" width="8.34941" height="8.2482" transform="rotate(-24.6514 399.678 440.72)" fill="black" fill-opacity="0.2"/>
<rect x="399.678" y="440.72" width="8.34941" height="8.2482" transform="rotate(-24.6514 399.678 440.72)" stroke="#1A0202" stroke-width="0.5"/>
<rect x="387.678" y="446.72" width="8.34941" height="8.2482" transform="rotate(-24.6514 387.678 446.72)" fill="#FFF9F9"/>
<rect x="387.678" y="446.72" width="8.34941" height="8.2482" transform="rotate(-24.6514 387.678 446.72)" fill="black" fill-opacity="0.2"/>
<rect x="387.678" y="446.72" width="8.34941" height="8.2482" transform="rotate(-24.6514 387.678 446.72)" stroke="#1A0202" stroke-width="0.5"/>
<rect x="374.678" y="452.72" width="8.34941" height="8.2482" transform="rotate(-24.6514 374.678 452.72)" fill="#FFF9F9"/>
<rect x="374.678" y="452.72" width="8.34941" height="8.2482" transform="rotate(-24.6514 374.678 452.72)" fill="black" fill-opacity="0.2"/>
<rect x="374.678" y="452.72" width="8.34941" height="8.2482" transform="rotate(-24.6514 374.678 452.72)" stroke="#1A0202" stroke-width="0.5"/>
<rect x="361.678" y="458.72" width="8.34941" height="8.2482" transform="rotate(-24.6514 361.678 458.72)" fill="#FFF9F9"/>
<rect x="361.678" y="458.72" width="8.34941" height="8.2482" transform="rotate(-24.6514 361.678 458.72)" fill="black" fill-opacity="0.2"/>
<rect x="361.678" y="458.72" width="8.34941" height="8.2482" transform="rotate(-24.6514 361.678 458.72)" stroke="#1A0202" stroke-width="0.5"/>
<rect x="380.678" y="466.889" width="8.75439" height="8.2482" transform="rotate(-24.6514 380.678 466.889)" fill="#FFF9F9"/>
<rect x="380.678" y="466.889" width="8.75439" height="8.2482" transform="rotate(-24.6514 380.678 466.889)" fill="black" fill-opacity="0.2"/>
<rect x="380.678" y="466.889" width="8.75439" height="8.2482" transform="rotate(-24.6514 380.678 466.889)" stroke="#1A0202" stroke-width="0.5"/>
<rect x="368.678" y="472.889" width="8.75439" height="8.2482" transform="rotate(-24.6514 368.678 472.889)" fill="#FFF9F9"/>
<rect x="368.678" y="472.889" width="8.75439" height="8.2482" transform="rotate(-24.6514 368.678 472.889)" fill="black" fill-opacity="0.2"/>
<rect x="368.678" y="472.889" width="8.75439" height="8.2482" transform="rotate(-24.6514 368.678 472.889)" stroke="#1A0202" stroke-width="0.5"/>
<rect x="355.678" y="478.889" width="8.75439" height="8.2482" transform="rotate(-24.6514 355.678 478.889)" fill="#FFF9F9"/>
<rect x="355.678" y="478.889" width="8.75439" height="8.2482" transform="rotate(-24.6514 355.678 478.889)" fill="black" fill-opacity="0.2"/>
<rect x="355.678" y="478.889" width="8.75439" height="8.2482" transform="rotate(-24.6514 355.678 478.889)" stroke="#1A0202" stroke-width="0.5"/>
<rect x="356.678" y="405.889" width="8.75439" height="8.2482" transform="rotate(-24.6514 356.678 405.889)" fill="#FFF9F9"/>
<rect x="356.678" y="405.889" width="8.75439" height="8.2482" transform="rotate(-24.6514 356.678 405.889)" fill="black" fill-opacity="0.2"/>
<rect x="356.678" y="405.889" width="8.75439" height="8.2482" transform="rotate(-24.6514 356.678 405.889)" stroke="#1A0202" stroke-width="0.5"/>
<rect x="392.678" y="388.889" width="8.75439" height="8.2482" transform="rotate(-24.6514 392.678 388.889)" fill="#FFF9F9"/>
<rect x="392.678" y="388.889" width="8.75439" height="8.2482" transform="rotate(-24.6514 392.678 388.889)" fill="black" fill-opacity="0.2"/>
<rect x="392.678" y="388.889" width="8.75439" height="8.2482" transform="rotate(-24.6514 392.678 388.889)" stroke="#1A0202" stroke-width="0.5"/>
<rect x="349.678" y="464.72" width="8.34941" height="8.2482" transform="rotate(-24.6514 349.678 464.72)" fill="#FFF9F9"/>
<rect x="349.678" y="464.72" width="8.34941" height="8.2482" transform="rotate(-24.6514 349.678 464.72)" fill="black" fill-opacity="0.2"/>
<rect x="349.678" y="464.72" width="8.34941" height="8.2482" transform="rotate(-24.6514 349.678 464.72)" stroke="#1A0202" stroke-width="0.5"/>
<rect x="380.678" y="394.889" width="8.75439" height="8.2482" transform="rotate(-24.6514 380.678 394.889)" fill="#FFF9F9"/>
<rect x="380.678" y="394.889" width="8.75439" height="8.2482" transform="rotate(-24.6514 380.678 394.889)" fill="black" fill-opacity="0.2"/>
<rect x="380.678" y="394.889" width="8.75439" height="8.2482" transform="rotate(-24.6514 380.678 394.889)" stroke="#1A0202" stroke-width="0.5"/>
<rect x="404.678" y="382.889" width="8.75439" height="8.2482" transform="rotate(-24.6514 404.678 382.889)" fill="#FFF9F9"/>
<rect x="404.678" y="382.889" width="8.75439" height="8.2482" transform="rotate(-24.6514 404.678 382.889)" fill="black" fill-opacity="0.2"/>
<rect x="404.678" y="382.889" width="8.75439" height="8.2482" transform="rotate(-24.6514 404.678 382.889)" stroke="#1A0202" stroke-width="0.5"/>
<rect x="368.678" y="400.889" width="8.75439" height="8.2482" transform="rotate(-24.6514 368.678 400.889)" fill="#FFF9F9"/>
<rect x="368.678" y="400.889" width="8.75439" height="8.2482" transform="rotate(-24.6514 368.678 400.889)" fill="black" fill-opacity="0.2"/>
<rect x="368.678" y="400.889" width="8.75439" height="8.2482" transform="rotate(-24.6514 368.678 400.889)" stroke="#1A0202" stroke-width="0.5"/>
<rect x="343.678" y="449.72" width="8.34941" height="8.2482" transform="rotate(-24.6514 343.678 449.72)" fill="#FFF9F9"/>
<rect x="343.678" y="449.72" width="8.34941" height="8.2482" transform="rotate(-24.6514 343.678 449.72)" fill="black" fill-opacity="0.2"/>
<rect x="343.678" y="449.72" width="8.34941" height="8.2482" transform="rotate(-24.6514 343.678 449.72)" stroke="#1A0202" stroke-width="0.5"/>
<rect x="355.678" y="443.72" width="8.34941" height="8.2482" transform="rotate(-24.6514 355.678 443.72)" fill="#FFF9F9"/>
<rect x="355.678" y="443.72" width="8.34941" height="8.2482" transform="rotate(-24.6514 355.678 443.72)" fill="black" fill-opacity="0.2"/>
<rect x="355.678" y="443.72" width="8.34941" height="8.2482" transform="rotate(-24.6514 355.678 443.72)" stroke="#1A0202" stroke-width="0.5"/>
<rect x="393.678" y="425.72" width="8.34941" height="8.2482" transform="rotate(-24.6514 393.678 425.72)" fill="#FFF9F9"/>
<rect x="393.678" y="425.72" width="8.34941" height="8.2482" transform="rotate(-24.6514 393.678 425.72)" fill="black" fill-opacity="0.2"/>
<rect x="393.678" y="425.72" width="8.34941" height="8.2482" transform="rotate(-24.6514 393.678 425.72)" stroke="#1A0202" stroke-width="0.5"/>
<rect x="406.678" y="419.72" width="8.34941" height="8.2482" transform="rotate(-24.6514 406.678 419.72)" fill="#FFF9F9"/>
<rect x="406.678" y="419.72" width="8.34941" height="8.2482" transform="rotate(-24.6514 406.678 419.72)" fill="black" fill-opacity="0.2"/>
<rect x="406.678" y="419.72" width="8.34941" height="8.2482" transform="rotate(-24.6514 406.678 419.72)" stroke="#1A0202" stroke-width="0.5"/>
<rect x="411.678" y="434.72" width="8.34941" height="8.2482" transform="rotate(-24.6514 411.678 434.72)" fill="#FFF9F9"/>
<rect x="411.678" y="434.72" width="8.34941" height="8.2482" transform="rotate(-24.6514 411.678 434.72)" fill="black" fill-opacity="0.2"/>
<rect x="411.678" y="434.72" width="8.34941" height="8.2482" transform="rotate(-24.6514 411.678 434.72)" stroke="#1A0202" stroke-width="0.5"/>
<rect x="418.678" y="413.72" width="8.34941" height="8.2482" transform="rotate(-24.6514 418.678 413.72)" fill="#FFF9F9"/>
<rect x="418.678" y="413.72" width="8.34941" height="8.2482" transform="rotate(-24.6514 418.678 413.72)" fill="black" fill-opacity="0.2"/>
<rect x="418.678" y="413.72" width="8.34941" height="8.2482" transform="rotate(-24.6514 418.678 413.72)" stroke="#1A0202" stroke-width="0.5"/>
<rect x="424.678" y="428.72" width="8.34941" height="8.2482" transform="rotate(-24.6514 424.678 428.72)" fill="#FFF9F9"/>
<rect x="424.678" y="428.72" width="8.34941" height="8.2482" transform="rotate(-24.6514 424.678 428.72)" fill="black" fill-opacity="0.2"/>
<rect x="424.678" y="428.72" width="8.34941" height="8.2482" transform="rotate(-24.6514 424.678 428.72)" stroke="#1A0202" stroke-width="0.5"/>
<rect x="380.678" y="431.72" width="8.34941" height="8.2482" transform="rotate(-24.6514 380.678 431.72)" fill="#FFF9F9"/>
<rect x="380.678" y="431.72" width="8.34941" height="8.2482" transform="rotate(-24.6514 380.678 431.72)" fill="black" fill-opacity="0.2"/>
<rect x="380.678" y="431.72" width="8.34941" height="8.2482" transform="rotate(-24.6514 380.678 431.72)" stroke="#1A0202" stroke-width="0.5"/>
<rect x="368.678" y="437.72" width="8.34941" height="8.2482" transform="rotate(-24.6514 368.678 437.72)" fill="#FFF9F9"/>
<rect x="368.678" y="437.72" width="8.34941" height="8.2482" transform="rotate(-24.6514 368.678 437.72)" fill="black" fill-opacity="0.2"/>
<rect x="368.678" y="437.72" width="8.34941" height="8.2482" transform="rotate(-24.6514 368.678 437.72)" stroke="#1A0202" stroke-width="0.5"/>
<rect x="343.678" y="411.889" width="8.75439" height="8.2482" transform="rotate(-24.6514 343.678 411.889)" fill="#FFF9F9"/>
<rect x="343.678" y="411.889" width="8.75439" height="8.2482" transform="rotate(-24.6514 343.678 411.889)" fill="black" fill-opacity="0.2"/>
<rect x="343.678" y="411.889" width="8.75439" height="8.2482" transform="rotate(-24.6514 343.678 411.889)" stroke="#1A0202" stroke-width="0.5"/>
<rect x="336.678" y="433.72" width="8.34941" height="8.2482" transform="rotate(-24.6514 336.678 433.72)" fill="#FFF9F9"/>
<rect x="336.678" y="433.72" width="8.34941" height="8.2482" transform="rotate(-24.6514 336.678 433.72)" fill="black" fill-opacity="0.2"/>
<rect x="336.678" y="433.72" width="8.34941" height="8.2482" transform="rotate(-24.6514 336.678 433.72)" stroke="#1A0202" stroke-width="0.5"/>
<rect x="350.678" y="427.72" width="8.34941" height="8.2482" transform="rotate(-24.6514 350.678 427.72)" fill="#FFF9F9"/>
<rect x="350.678" y="427.72" width="8.34941" height="8.2482" transform="rotate(-24.6514 350.678 427.72)" fill="black" fill-opacity="0.2"/>
<rect x="350.678" y="427.72" width="8.34941" height="8.2482" transform="rotate(-24.6514 350.678 427.72)" stroke="#1A0202" stroke-width="0.5"/>
<rect x="386.678" y="410.72" width="8.34941" height="8.2482" transform="rotate(-24.6514 386.678 410.72)" fill="#FFF9F9"/>
<rect x="386.678" y="410.72" width="8.34941" height="8.2482" transform="rotate(-24.6514 386.678 410.72)" fill="black" fill-opacity="0.2"/>
<rect x="386.678" y="410.72" width="8.34941" height="8.2482" transform="rotate(-24.6514 386.678 410.72)" stroke="#1A0202" stroke-width="0.5"/>
<rect x="411.678" y="398.72" width="8.34941" height="8.2482" transform="rotate(-24.6514 411.678 398.72)" fill="#FFF9F9"/>
<rect x="411.678" y="398.72" width="8.34941" height="8.2482" transform="rotate(-24.6514 411.678 398.72)" fill="black" fill-opacity="0.2"/>
<rect x="411.678" y="398.72" width="8.34941" height="8.2482" transform="rotate(-24.6514 411.678 398.72)" stroke="#1A0202" stroke-width="0.5"/>
<rect x="399.678" y="404.72" width="8.34941" height="8.2482" transform="rotate(-24.6514 399.678 404.72)" fill="#FFF9F9"/>
<rect x="399.678" y="404.72" width="8.34941" height="8.2482" transform="rotate(-24.6514 399.678 404.72)" fill="black" fill-opacity="0.2"/>
<rect x="399.678" y="404.72" width="8.34941" height="8.2482" transform="rotate(-24.6514 399.678 404.72)" stroke="#1A0202" stroke-width="0.5"/>
<rect x="374.678" y="416.72" width="8.34941" height="8.2482" transform="rotate(-24.6514 374.678 416.72)" fill="#FFF9F9"/>
<rect x="374.678" y="416.72" width="8.34941" height="8.2482" transform="rotate(-24.6514 374.678 416.72)" fill="black" fill-opacity="0.2"/>
<rect x="374.678" y="416.72" width="8.34941" height="8.2482" transform="rotate(-24.6514 374.678 416.72)" stroke="#1A0202" stroke-width="0.5"/>
<rect x="363.678" y="421.72" width="8.34941" height="8.2482" transform="rotate(-24.6514 363.678 421.72)" fill="#FFF9F9"/>
<rect x="363.678" y="421.72" width="8.34941" height="8.2482" transform="rotate(-24.6514 363.678 421.72)" fill="black" fill-opacity="0.2"/>
<rect x="363.678" y="421.72" width="8.34941" height="8.2482" transform="rotate(-24.6514 363.678 421.72)" stroke="#1A0202" stroke-width="0.5"/>
<line x1="333.422" y1="425.952" x2="337.272" y2="415.462" stroke="black" stroke-width="0.7"/>
<path d="M347.347 418.906L351.347 408.406" stroke="black" stroke-width="0.7"/>
<path d="M360.347 413.406L364.347 402.406" stroke="black" stroke-width="0.7"/>
<path d="M309.702 380.343L410.59 331.553L475.59 494.553L430.59 519.553L373.529 553.984L309.702 380.343Z" fill="#D9D9D9"/>
<path d="M302.347 389.906L310.563 380.906L373.847 552.906L371.347 556.406L367.347 561.407L361.847 546.407L352.347 522.907L340.847 491.407L329.347 461.907L302.347 389.906Z" fill="#EAE8E8"/>
<path d="M372.412 549.406L474.912 492.906L476.412 498.406L474.912 499.406L462.412 506.406L430.412 524.406L366.412 558.906L372.412 549.406Z" fill="#AFA8A8"/>
<path d="M323.347 381.906V382.645" stroke="black" stroke-linecap="square"/>
<path d="M352.347 368.906V370.015" stroke="black" stroke-linecap="square"/>
<path d="M377.347 356.906V358.754" stroke="black" stroke-linecap="square"/>
<path d="M398.966 348.906C398.966 349.605 398.703 350.807 399.336 351.123" stroke="black" stroke-linecap="square"/>
<ellipse cx="325.459" cy="383.279" rx="4.31222" ry="3.00486" transform="rotate(-21.4324 325.459 383.279)" fill="#0D0000"/>
<ellipse cx="352.626" cy="370.327" rx="4.5" ry="3" transform="rotate(-21.1365 352.626 370.327)" fill="#170101"/>
<ellipse cx="376.648" cy="359.274" rx="4.56462" ry="2.82213" transform="rotate(-22.752 376.648 359.274)" fill="#0F0101"/>
<ellipse cx="398.529" cy="349.861" rx="4.5" ry="2.75925" transform="rotate(-24.5616 398.529 349.861)" fill="#110000"/>
<path d="M324.268 381.23C324.268 380.472 324.334 379.726 324.223 378.97C324.192 378.765 324.196 378.546 324.146 378.346C324.077 378.073 324.008 377.798 323.944 377.523C323.837 377.062 323.641 376.614 323.381 376.218C323.18 375.912 322.99 375.599 322.791 375.293C322.616 375.025 322.343 374.81 322.124 374.576C321.431 373.837 320.356 373.474 319.371 373.376C318.452 373.285 317.587 373.267 316.711 373.58C316.486 373.66 316.246 373.737 316.044 373.866C315.886 373.968 315.758 374.141 315.613 374.238C315.46 374.34 315.33 374.464 315.201 374.593C315.096 374.698 315.028 374.798 314.954 374.933C314.83 375.162 314.646 375.403 314.576 375.656C314.498 375.936 314.368 376.219 314.368 376.513C314.368 376.64 314.368 376.767 314.368 376.895C314.368 377.082 314.458 377.209 314.458 377.39" stroke="black" stroke-width="2" stroke-linecap="round"/>
<path d="M352.247 367.818C352.247 367.06 352.313 366.314 352.202 365.558C352.172 365.353 352.175 365.134 352.125 364.934C352.057 364.661 351.987 364.386 351.924 364.111C351.817 363.65 351.621 363.202 351.36 362.806C351.159 362.5 350.97 362.188 350.77 361.881C350.596 361.613 350.322 361.398 350.104 361.164C349.411 360.425 348.336 360.062 347.35 359.964C346.432 359.873 345.566 359.855 344.69 360.168C344.465 360.248 344.226 360.325 344.024 360.454C343.865 360.556 343.738 360.729 343.592 360.826C343.439 360.928 343.309 361.052 343.18 361.181C343.075 361.286 343.007 361.386 342.934 361.521C342.81 361.75 342.626 361.991 342.555 362.244C342.478 362.524 342.347 362.807 342.347 363.101C342.347 363.228 342.347 363.355 342.347 363.483C342.347 363.67 342.437 363.797 342.437 363.978" stroke="black" stroke-width="2" stroke-linecap="round"/>
<path d="M376.247 356.818C376.247 356.06 376.313 355.314 376.202 354.558C376.172 354.353 376.175 354.134 376.125 353.934C376.057 353.661 375.987 353.386 375.924 353.111C375.817 352.65 375.621 352.202 375.36 351.806C375.159 351.5 374.97 351.188 374.77 350.881C374.596 350.613 374.322 350.398 374.104 350.164C373.411 349.425 372.336 349.062 371.35 348.964C370.432 348.873 369.566 348.855 368.69 349.168C368.465 349.248 368.226 349.325 368.024 349.454C367.865 349.556 367.738 349.729 367.592 349.826C367.439 349.928 367.309 350.052 367.18 350.181C367.075 350.286 367.007 350.386 366.934 350.521C366.81 350.75 366.626 350.991 366.555 351.244C366.478 351.524 366.347 351.807 366.347 352.101C366.347 352.228 366.347 352.355 366.347 352.483C366.347 352.67 366.437 352.797 366.437 352.978" stroke="black" stroke-width="2" stroke-linecap="round"/>
<path d="M397.812 346.818C397.812 346.06 397.878 345.314 397.767 344.558C397.737 344.353 397.74 344.134 397.69 343.934C397.622 343.661 397.552 343.386 397.488 343.111C397.382 342.65 397.186 342.202 396.925 341.806C396.724 341.5 396.535 341.188 396.335 340.881C396.161 340.613 395.887 340.398 395.668 340.164C394.975 339.425 393.901 339.062 392.915 338.964C391.996 338.873 391.131 338.855 390.255 339.168C390.03 339.248 389.79 339.325 389.589 339.454C389.43 339.556 389.303 339.729 389.157 339.826C389.004 339.928 388.874 340.052 388.745 340.181C388.64 340.286 388.572 340.386 388.499 340.521C388.375 340.75 388.19 340.991 388.12 341.244C388.042 341.524 387.912 341.807 387.912 342.101C387.912 342.228 387.912 342.355 387.912 342.483C387.912 342.67 388.002 342.797 388.002 342.978" stroke="black" stroke-width="2" stroke-linecap="round"/>
<path d="M309.912 409.348C310.204 409.088 310.415 408.766 310.647 408.447C311.164 407.735 311.747 407.097 312.305 406.419C312.63 406.024 312.916 405.6 313.235 405.201C313.572 404.779 314.029 404.481 314.424 404.119C314.963 403.625 315.431 403.067 315.946 402.553C316.125 402.374 316.326 402.228 316.525 402.073C316.756 401.894 316.881 401.691 317.087 401.475C317.314 401.236 317.471 400.906 317.822 400.906" stroke="black" stroke-width="0.7" stroke-linecap="round"/>
<path d="M335.912 389.971C337.084 389.912 338.227 389.296 339.319 388.906" stroke="black" stroke-width="0.7" stroke-linecap="round"/>
<path d="M321.812 397.289C323.435 396.748 325.002 395.517 326.45 394.651C327.817 393.832 329.177 392.998 330.543 392.178" stroke="black" stroke-width="0.7" stroke-linecap="round"/>
<path d="M342.912 386.378C346.309 384.532 349.966 383.284 353.56 381.906" stroke="black" stroke-width="0.7" stroke-linecap="round"/>
<path d="M358.44 378.549C359.772 378.121 360.824 376.632 362.273 376.632" stroke="black" stroke-width="0.7" stroke-linecap="round"/>
<path d="M368.236 374.077C368.807 373.995 369.22 373.692 369.727 373.438" stroke="black" stroke-width="0.7" stroke-linecap="round"/>
<path d="M375.689 371.522C376.838 370.556 378.143 370.065 379.523 369.605" stroke="black" stroke-width="0.7" stroke-linecap="round"/>
<path d="M281.403 795.581C281.403 796.871 281.133 798.086 280.593 799.226C280.053 800.336 279.168 801.311 277.938 802.151C276.738 802.961 275.163 803.606 273.213 804.086C271.293 804.566 268.923 804.806 266.103 804.806C264.513 804.806 262.953 804.686 261.423 804.446C259.923 804.206 258.483 803.861 257.103 803.411C255.753 802.961 254.493 802.421 253.323 801.791C252.183 801.131 251.193 800.411 250.353 799.631L252.603 796.931C254.313 798.401 256.308 799.526 258.588 800.306C260.868 801.056 263.373 801.431 266.103 801.431C269.133 801.431 271.278 801.011 272.538 800.171C273.798 799.331 274.428 798.176 274.428 796.706C274.428 795.566 273.933 794.606 272.943 793.826C271.953 793.046 270.273 792.281 267.903 791.531L259.353 788.831C256.533 787.931 254.403 786.791 252.963 785.411C251.523 784.001 250.803 782.216 250.803 780.056C250.803 778.946 251.058 777.881 251.568 776.861C252.108 775.811 252.933 774.896 254.043 774.116C255.153 773.306 256.563 772.676 258.273 772.226C260.013 771.746 262.098 771.506 264.528 771.506C265.998 771.506 267.453 771.626 268.893 771.866C270.363 772.106 271.758 772.451 273.078 772.901C274.428 773.351 275.673 773.906 276.813 774.566C277.983 775.196 278.988 775.901 279.828 776.681L277.578 779.381C275.868 777.911 273.948 776.801 271.818 776.051C269.688 775.271 267.258 774.881 264.528 774.881C262.278 774.881 260.583 775.271 259.443 776.051C258.333 776.831 257.778 777.791 257.778 778.931C257.778 779.561 257.883 780.116 258.093 780.596C258.303 781.046 258.648 781.481 259.128 781.901C259.638 782.291 260.298 782.666 261.108 783.026C261.918 783.356 262.923 783.716 264.123 784.106L272.628 786.806C275.358 787.676 277.503 788.816 279.063 790.226C280.623 791.636 281.403 793.421 281.403 795.581ZM304.353 803.006H298.503C294.213 803.006 291.033 802.241 288.963 800.711C286.923 799.151 285.903 796.841 285.903 793.781V780.506H292.203V793.781C292.203 795.941 292.743 797.501 293.823 798.461C294.903 799.391 296.463 799.856 298.503 799.856H304.353V780.506H310.653V803.456C310.653 804.866 310.383 806.141 309.843 807.281C309.303 808.451 308.493 809.456 307.413 810.296C306.363 811.136 305.028 811.781 303.408 812.231C301.818 812.681 299.958 812.906 297.828 812.906C297.108 812.906 296.328 812.846 295.488 812.726C294.678 812.636 293.853 812.471 293.013 812.231C292.173 812.021 291.348 811.736 290.538 811.376C289.758 811.046 289.038 810.656 288.378 810.206L290.178 807.506C291.198 808.196 292.338 808.736 293.598 809.126C294.858 809.546 296.118 809.756 297.378 809.756C299.628 809.756 301.353 809.246 302.553 808.226C303.753 807.206 304.353 805.616 304.353 803.456V803.006ZM341.722 803.906H335.422V789.731C335.422 787.571 334.882 786.026 333.802 785.096C332.722 784.136 331.162 783.656 329.122 783.656H323.272V803.906H316.972V780.506H329.122C333.412 780.506 336.577 781.286 338.617 782.846C340.687 784.376 341.722 786.671 341.722 789.731V803.906ZM360.378 779.606C361.338 779.606 362.298 779.696 363.258 779.876C364.218 780.026 365.133 780.251 366.003 780.551C366.903 780.821 367.728 781.166 368.478 781.586C369.258 782.006 369.933 782.471 370.503 782.981L368.703 785.681C367.473 784.751 366.213 784.031 364.923 783.521C363.663 783.011 362.298 782.756 360.828 782.756C359.748 782.756 358.758 782.936 357.858 783.296C356.958 783.626 356.178 784.181 355.518 784.961C354.858 785.711 354.333 786.686 353.943 787.886C353.583 789.086 353.403 790.526 353.403 792.206C353.403 793.886 353.583 795.326 353.943 796.526C354.333 797.726 354.873 798.716 355.563 799.496C356.253 800.246 357.078 800.801 358.038 801.161C359.028 801.491 360.108 801.656 361.278 801.656C362.748 801.656 364.113 801.401 365.373 800.891C366.663 800.381 367.923 799.661 369.153 798.731L370.953 801.431C370.383 801.941 369.708 802.406 368.928 802.826C368.178 803.246 367.353 803.606 366.453 803.906C365.583 804.176 364.668 804.386 363.708 804.536C362.748 804.716 361.788 804.806 360.828 804.806C358.698 804.806 356.748 804.521 354.978 803.951C353.238 803.411 351.753 802.616 350.523 801.566C349.293 800.486 348.333 799.166 347.643 797.606C346.983 796.046 346.653 794.246 346.653 792.206C346.653 790.196 346.983 788.411 347.643 786.851C348.333 785.261 349.278 783.941 350.478 782.891C351.678 781.811 353.118 781.001 354.798 780.461C356.478 779.891 358.338 779.606 360.378 779.606ZM390.764 800.081H391.214L402.509 772.406H409.214L396.389 803.906H385.589L372.764 772.406H379.469L390.764 800.081ZM422.736 801.881C423.696 801.881 424.596 801.701 425.436 801.341C426.276 800.981 427.011 800.426 427.641 799.676C428.271 798.896 428.766 797.891 429.126 796.661C429.516 795.431 429.711 793.946 429.711 792.206C429.711 790.466 429.516 788.981 429.126 787.751C428.766 786.521 428.271 785.531 427.641 784.781C427.011 784.001 426.276 783.431 425.436 783.071C424.596 782.711 423.696 782.531 422.736 782.531C421.776 782.531 420.876 782.711 420.036 783.071C419.196 783.431 418.461 784.001 417.831 784.781C417.201 785.531 416.691 786.521 416.301 787.751C415.941 788.981 415.761 790.466 415.761 792.206C415.761 793.946 415.941 795.431 416.301 796.661C416.691 797.891 417.201 798.896 417.831 799.676C418.461 800.426 419.196 800.981 420.036 801.341C420.876 801.701 421.776 801.881 422.736 801.881ZM422.736 779.606C424.746 779.606 426.591 779.891 428.271 780.461C429.981 781.001 431.436 781.811 432.636 782.891C433.836 783.941 434.766 785.261 435.426 786.851C436.116 788.411 436.461 790.196 436.461 792.206C436.461 794.246 436.116 796.046 435.426 797.606C434.766 799.166 433.836 800.486 432.636 801.566C431.436 802.616 429.981 803.411 428.271 803.951C426.591 804.521 424.746 804.806 422.736 804.806C420.696 804.806 418.836 804.521 417.156 803.951C415.476 803.411 414.036 802.616 412.836 801.566C411.636 800.486 410.691 799.166 410.001 797.606C409.341 796.046 409.011 794.246 409.011 792.206C409.011 790.196 409.341 788.411 410.001 786.851C410.691 785.261 411.636 783.941 412.836 782.891C414.036 781.811 415.476 781.001 417.156 780.461C418.836 779.891 420.696 779.606 422.736 779.606ZM447.945 803.906H441.645V772.406H447.945V803.906ZM454.258 780.506H460.558V794.681C460.558 796.841 461.098 798.401 462.178 799.361C463.258 800.291 464.818 800.756 466.858 800.756H472.708V780.506H479.008V803.906H466.858C462.568 803.906 459.388 803.141 457.318 801.611C455.278 800.051 454.258 797.741 454.258 794.681V780.506ZM510.077 803.906H503.777V789.731C503.777 787.571 503.237 786.026 502.157 785.096C501.077 784.136 499.517 783.656 497.477 783.656H491.627V803.906H485.327V780.506H497.477C501.767 780.506 504.932 781.286 506.972 782.846C509.042 784.376 510.077 786.671 510.077 789.731V803.906ZM517.279 783.656H513.004V780.506H517.279V773.306H523.579V780.506H530.554V783.656H523.579V795.356C523.579 796.496 523.699 797.471 523.939 798.281C524.209 799.061 524.554 799.706 524.974 800.216C525.424 800.696 525.934 801.056 526.504 801.296C527.074 801.536 527.674 801.656 528.304 801.656C529.204 801.656 530.074 801.521 530.914 801.251C531.754 800.951 532.459 800.636 533.029 800.306L534.379 803.231C533.479 803.681 532.444 804.056 531.274 804.356C530.134 804.656 528.994 804.806 527.854 804.806C524.464 804.806 521.854 803.966 520.024 802.286C518.194 800.606 517.279 798.296 517.279 795.356V783.656ZM550.111 801.656C551.581 801.656 552.946 801.401 554.206 800.891C555.496 800.381 556.756 799.661 557.986 798.731L559.786 801.431C559.216 801.941 558.541 802.406 557.761 802.826C557.011 803.246 556.186 803.606 555.286 803.906C554.416 804.176 553.501 804.386 552.541 804.536C551.581 804.716 550.621 804.806 549.661 804.806C547.531 804.806 545.581 804.521 543.811 803.951C542.071 803.411 540.586 802.616 539.356 801.566C538.126 800.486 537.166 799.166 536.476 797.606C535.816 796.046 535.486 794.246 535.486 792.206C535.486 790.196 535.801 788.411 536.431 786.851C537.091 785.261 537.991 783.941 539.131 782.891C540.301 781.811 541.681 781.001 543.271 780.461C544.861 779.891 546.616 779.606 548.536 779.606C550.336 779.606 552.031 779.876 553.621 780.416C555.211 780.956 556.591 781.751 557.761 782.801C558.931 783.821 559.861 785.066 560.551 786.536C561.241 788.006 561.586 789.671 561.586 791.531V794.681H542.371C542.731 797.171 543.586 798.956 544.936 800.036C546.316 801.116 548.041 801.656 550.111 801.656ZM548.536 782.531C547.666 782.531 546.856 782.696 546.106 783.026C545.356 783.356 544.696 783.881 544.126 784.601C543.586 785.321 543.136 786.251 542.776 787.391C542.446 788.531 542.266 789.911 542.236 791.531H554.836C554.836 789.971 554.656 788.621 554.296 787.481C553.936 786.341 553.456 785.411 552.856 784.691C552.286 783.941 551.611 783.401 550.831 783.071C550.081 782.711 549.316 782.531 548.536 782.531ZM580.258 801.656C581.728 801.656 583.093 801.401 584.353 800.891C585.643 800.381 586.903 799.661 588.133 798.731L589.933 801.431C589.363 801.941 588.688 802.406 587.908 802.826C587.158 803.246 586.333 803.606 585.433 803.906C584.563 804.176 583.648 804.386 582.688 804.536C581.728 804.716 580.768 804.806 579.808 804.806C577.678 804.806 575.728 804.521 573.958 803.951C572.218 803.411 570.733 802.616 569.503 801.566C568.273 800.486 567.313 799.166 566.623 797.606C565.963 796.046 565.633 794.246 565.633 792.206C565.633 790.196 565.948 788.411 566.578 786.851C567.238 785.261 568.138 783.941 569.278 782.891C570.448 781.811 571.828 781.001 573.418 780.461C575.008 779.891 576.763 779.606 578.683 779.606C580.483 779.606 582.178 779.876 583.768 780.416C585.358 780.956 586.738 781.751 587.908 782.801C589.078 783.821 590.008 785.066 590.698 786.536C591.388 788.006 591.733 789.671 591.733 791.531V794.681H572.518C572.878 797.171 573.733 798.956 575.083 800.036C576.463 801.116 578.188 801.656 580.258 801.656ZM578.683 782.531C577.813 782.531 577.003 782.696 576.253 783.026C575.503 783.356 574.843 783.881 574.273 784.601C573.733 785.321 573.283 786.251 572.923 787.391C572.593 788.531 572.413 789.911 572.383 791.531H584.983C584.983 789.971 584.803 788.621 584.443 787.481C584.083 786.341 583.603 785.411 583.003 784.691C582.433 783.941 581.758 783.401 580.978 783.071C580.228 782.711 579.463 782.531 578.683 782.531ZM614.679 783.656H609.279C607.239 783.656 605.679 784.211 604.599 785.321C603.519 786.401 602.979 788.021 602.979 790.181V803.906H596.679V790.181C596.679 787.121 597.639 784.751 599.559 783.071C601.509 781.361 604.299 780.506 607.929 780.506H614.679V783.656Z" fill="white"/>
<path d="M387.402 365.985C388.764 365.137 390.158 364.338 391.566 363.571C391.967 363.353 392.451 363.003 392.939 363.003" stroke="black" stroke-width="0.7" stroke-linecap="round"/>
<path d="M398.688 360.448C401.63 359.756 404.243 357.536 406.651 355.869C407.047 355.595 407.482 355.348 407.763 355.006C408.247 354.413 408.945 354.433 409.336 353.846" stroke="black" stroke-width="0.7" stroke-linecap="round"/>
<path d="M413.912 352.119C414.111 352.097 414.179 352.012 414.338 351.906" stroke="black" stroke-width="0.7" stroke-linecap="round"/>
<path d="M302.37 688.969C281.033 731.615 281.912 744.906 252.412 688.969C252.412 688.969 251.852 685.925 273.19 643.279C294.527 600.633 327.145 556.028 338.648 561.783C350.152 567.539 323.708 646.324 302.37 688.969Z" fill="#C5B3B3"/>
<path d="M415.1 653.443C415.1 696.818 428.515 734.131 396.742 730.366C376.972 733.055 369.912 726.941 369.912 683.567C369.912 640.192 375.644 574.906 389.682 574.906C403.72 574.906 415.1 610.068 415.1 653.443Z" fill="black"/>
<path d="M563.298 570.098C597.961 606.297 612.361 596.817 611.249 649.825C610.69 676.485 568.338 634.663 533.675 598.464C499.012 562.265 477.543 526.57 485.723 518.737C493.904 510.904 528.635 533.899 563.298 570.098Z" fill="#9A9A9A"/>
<path d="M499.532 641.88C520.776 691.571 525.412 686.906 498.629 702.142C472.841 716.812 482.964 707.736 461.72 658.045C440.477 608.354 431.719 564.453 442.161 559.989C452.602 555.525 478.288 592.189 499.532 641.88Z" fill="#D9D9D9"/>
<path d="M523.912 587.906L547.912 554.906L553.912 560.406L529.912 594.406L523.912 587.906Z" fill="#767272"/>
<path d="M544.319 609.457L566.912 573.906L572.912 579.406L550.412 615.906L544.319 609.457Z" fill="#696868"/>
<path d="M507.248 567.712L530.41 539.534L534.412 542.531L536.411 544.532L512.742 574.719L509.746 570.715L507.248 567.712Z" fill="#6F6C6C"/>
<path d="M566.408 630.911L584.638 589.542L591.912 595.406L575.412 639.906L566.408 630.911Z" fill="#676767"/>
<ellipse cx="505.912" cy="539.906" rx="7" ry="6" transform="rotate(39.9117 505.912 539.906)" fill="#FEB6FF"/>
<ellipse cx="451.888" cy="583.496" rx="7" ry="6" transform="rotate(70.7067 451.888 583.496)" fill="#FEB6FF"/>
<ellipse cx="392.412" cy="600.906" rx="5.5" ry="6" fill="#FEB6FF"/>
<ellipse cx="326.801" cy="584.065" rx="7" ry="6" transform="rotate(-55.9899 326.801 584.065)" fill="#FEB6FF"/>
<ellipse cx="324.166" cy="573.429" rx="0.5" ry="1.5" transform="rotate(34.0785 324.166 573.429)" fill="white"/>
<ellipse cx="331.269" cy="569.37" rx="0.5" ry="1.5" transform="rotate(40.6777 331.269 569.37)" fill="white"/>
<ellipse cx="494.328" cy="538.319" rx="0.5" ry="1.5" transform="rotate(-45.1233 494.328 538.319)" fill="white"/>
<ellipse cx="495.403" cy="527.221" rx="0.5" ry="1.5" transform="rotate(-52.1586 495.403 527.221)" fill="white"/>
<ellipse cx="506.392" cy="529.239" rx="0.5" ry="1.5" transform="rotate(-50.9632 506.392 529.239)" fill="white"/>
<ellipse cx="492.372" cy="530.267" rx="0.5" ry="1.5" transform="rotate(-49.04 492.372 530.267)" fill="white"/>
<ellipse cx="443.165" cy="570.429" rx="0.5" ry="1.5" transform="rotate(-34.001 443.165 570.429)" fill="white"/>
<ellipse cx="448.173" cy="568.426" rx="0.5" ry="1.5" transform="rotate(-34.4734 448.173 568.426)" fill="white"/>
<ellipse cx="456.227" cy="573.398" rx="0.5" ry="1.5" transform="rotate(-37.8485 456.227 573.398)" fill="white"/>
<ellipse cx="442.12" cy="578.447" rx="0.5" ry="1.5" transform="rotate(-31.3636 442.12 578.447)" fill="white"/>
<ellipse cx="394.412" cy="583.406" rx="0.5" ry="1.5" fill="white"/>
<ellipse cx="401.412" cy="591.406" rx="0.5" ry="1.5" fill="white"/>
<ellipse cx="388.412" cy="583.406" rx="0.5" ry="1.5" fill="white"/>
<ellipse cx="384.412" cy="591.406" rx="0.5" ry="1.5" fill="white"/>
<ellipse cx="337.412" cy="578.406" rx="0.5" ry="1.5" transform="rotate(24.1128 337.412 578.406)" fill="white"/>
<ellipse cx="336.412" cy="571.406" rx="0.5" ry="1.5" transform="rotate(36.34 336.412 571.406)" fill="white"/>
<rect x="329.678" y="418.889" width="8.75439" height="8.2482" transform="rotate(-24.6514 329.678 418.889)" fill="#FFF9F9"/>
<rect x="329.678" y="418.889" width="8.75439" height="8.2482" transform="rotate(-24.6514 329.678 418.889)" fill="black" fill-opacity="0.2"/>
<rect x="329.678" y="418.889" width="8.75439" height="8.2482" transform="rotate(-24.6514 329.678 418.889)" stroke="#1A0202" stroke-width="0.5"/>
<rect x="399.678" y="440.72" width="8.34941" height="8.2482" transform="rotate(-24.6514 399.678 440.72)" fill="#FFF9F9"/>
<rect x="399.678" y="440.72" width="8.34941" height="8.2482" transform="rotate(-24.6514 399.678 440.72)" fill="black" fill-opacity="0.2"/>
<rect x="399.678" y="440.72" width="8.34941" height="8.2482" transform="rotate(-24.6514 399.678 440.72)" stroke="#1A0202" stroke-width="0.5"/>
<rect x="387.678" y="446.72" width="8.34941" height="8.2482" transform="rotate(-24.6514 387.678 446.72)" fill="#FFF9F9"/>
<rect x="387.678" y="446.72" width="8.34941" height="8.2482" transform="rotate(-24.6514 387.678 446.72)" fill="black" fill-opacity="0.2"/>
<rect x="387.678" y="446.72" width="8.34941" height="8.2482" transform="rotate(-24.6514 387.678 446.72)" stroke="#1A0202" stroke-width="0.5"/>
<rect x="374.678" y="452.72" width="8.34941" height="8.2482" transform="rotate(-24.6514 374.678 452.72)" fill="#FFF9F9"/>
<rect x="374.678" y="452.72" width="8.34941" height="8.2482" transform="rotate(-24.6514 374.678 452.72)" fill="black" fill-opacity="0.2"/>
<rect x="374.678" y="452.72" width="8.34941" height="8.2482" transform="rotate(-24.6514 374.678 452.72)" stroke="#1A0202" stroke-width="0.5"/>
<rect x="361.678" y="458.72" width="8.34941" height="8.2482" transform="rotate(-24.6514 361.678 458.72)" fill="#FFF9F9"/>
<rect x="361.678" y="458.72" width="8.34941" height="8.2482" transform="rotate(-24.6514 361.678 458.72)" fill="black" fill-opacity="0.2"/>
<rect x="361.678" y="458.72" width="8.34941" height="8.2482" transform="rotate(-24.6514 361.678 458.72)" stroke="#1A0202" stroke-width="0.5"/>
<rect x="380.678" y="466.889" width="8.75439" height="8.2482" transform="rotate(-24.6514 380.678 466.889)" fill="#FFF9F9"/>
<rect x="380.678" y="466.889" width="8.75439" height="8.2482" transform="rotate(-24.6514 380.678 466.889)" fill="black" fill-opacity="0.2"/>
<rect x="380.678" y="466.889" width="8.75439" height="8.2482" transform="rotate(-24.6514 380.678 466.889)" stroke="#1A0202" stroke-width="0.5"/>
<rect x="368.678" y="472.889" width="8.75439" height="8.2482" transform="rotate(-24.6514 368.678 472.889)" fill="#FFF9F9"/>
<rect x="368.678" y="472.889" width="8.75439" height="8.2482" transform="rotate(-24.6514 368.678 472.889)" fill="black" fill-opacity="0.2"/>
<rect x="368.678" y="472.889" width="8.75439" height="8.2482" transform="rotate(-24.6514 368.678 472.889)" stroke="#1A0202" stroke-width="0.5"/>
<rect x="355.678" y="478.889" width="8.75439" height="8.2482" transform="rotate(-24.6514 355.678 478.889)" fill="#FFF9F9"/>
<rect x="355.678" y="478.889" width="8.75439" height="8.2482" transform="rotate(-24.6514 355.678 478.889)" fill="black" fill-opacity="0.2"/>
<rect x="355.678" y="478.889" width="8.75439" height="8.2482" transform="rotate(-24.6514 355.678 478.889)" stroke="#1A0202" stroke-width="0.5"/>
<rect x="356.678" y="405.889" width="8.75439" height="8.2482" transform="rotate(-24.6514 356.678 405.889)" fill="#FFF9F9"/>
<rect x="356.678" y="405.889" width="8.75439" height="8.2482" transform="rotate(-24.6514 356.678 405.889)" fill="black" fill-opacity="0.2"/>
<rect x="356.678" y="405.889" width="8.75439" height="8.2482" transform="rotate(-24.6514 356.678 405.889)" stroke="#1A0202" stroke-width="0.5"/>
<rect x="392.678" y="388.889" width="8.75439" height="8.2482" transform="rotate(-24.6514 392.678 388.889)" fill="#FFF9F9"/>
<rect x="392.678" y="388.889" width="8.75439" height="8.2482" transform="rotate(-24.6514 392.678 388.889)" fill="black" fill-opacity="0.2"/>
<rect x="392.678" y="388.889" width="8.75439" height="8.2482" transform="rotate(-24.6514 392.678 388.889)" stroke="#1A0202" stroke-width="0.5"/>
<rect x="349.678" y="464.72" width="8.34941" height="8.2482" transform="rotate(-24.6514 349.678 464.72)" fill="#FFF9F9"/>
<rect x="349.678" y="464.72" width="8.34941" height="8.2482" transform="rotate(-24.6514 349.678 464.72)" fill="black" fill-opacity="0.2"/>
<rect x="349.678" y="464.72" width="8.34941" height="8.2482" transform="rotate(-24.6514 349.678 464.72)" stroke="#1A0202" stroke-width="0.5"/>
<rect x="380.678" y="394.889" width="8.75439" height="8.2482" transform="rotate(-24.6514 380.678 394.889)" fill="#FFF9F9"/>
<rect x="380.678" y="394.889" width="8.75439" height="8.2482" transform="rotate(-24.6514 380.678 394.889)" fill="black" fill-opacity="0.2"/>
<rect x="380.678" y="394.889" width="8.75439" height="8.2482" transform="rotate(-24.6514 380.678 394.889)" stroke="#1A0202" stroke-width="0.5"/>
<rect x="404.678" y="382.889" width="8.75439" height="8.2482" transform="rotate(-24.6514 404.678 382.889)" fill="#FFF9F9"/>
<rect x="404.678" y="382.889" width="8.75439" height="8.2482" transform="rotate(-24.6514 404.678 382.889)" fill="black" fill-opacity="0.2"/>
<rect x="404.678" y="382.889" width="8.75439" height="8.2482" transform="rotate(-24.6514 404.678 382.889)" stroke="#1A0202" stroke-width="0.5"/>
<rect x="368.678" y="400.889" width="8.75439" height="8.2482" transform="rotate(-24.6514 368.678 400.889)" fill="#FFF9F9"/>
<rect x="368.678" y="400.889" width="8.75439" height="8.2482" transform="rotate(-24.6514 368.678 400.889)" fill="black" fill-opacity="0.2"/>
<rect x="368.678" y="400.889" width="8.75439" height="8.2482" transform="rotate(-24.6514 368.678 400.889)" stroke="#1A0202" stroke-width="0.5"/>
<rect x="343.678" y="449.72" width="8.34941" height="8.2482" transform="rotate(-24.6514 343.678 449.72)" fill="#FFF9F9"/>
<rect x="343.678" y="449.72" width="8.34941" height="8.2482" transform="rotate(-24.6514 343.678 449.72)" fill="black" fill-opacity="0.2"/>
<rect x="343.678" y="449.72" width="8.34941" height="8.2482" transform="rotate(-24.6514 343.678 449.72)" stroke="#1A0202" stroke-width="0.5"/>
<rect x="355.678" y="443.72" width="8.34941" height="8.2482" transform="rotate(-24.6514 355.678 443.72)" fill="#FFF9F9"/>
<rect x="355.678" y="443.72" width="8.34941" height="8.2482" transform="rotate(-24.6514 355.678 443.72)" fill="black" fill-opacity="0.2"/>
<rect x="355.678" y="443.72" width="8.34941" height="8.2482" transform="rotate(-24.6514 355.678 443.72)" stroke="#1A0202" stroke-width="0.5"/>
<rect x="393.678" y="425.72" width="8.34941" height="8.2482" transform="rotate(-24.6514 393.678 425.72)" fill="#FFF9F9"/>
<rect x="393.678" y="425.72" width="8.34941" height="8.2482" transform="rotate(-24.6514 393.678 425.72)" fill="black" fill-opacity="0.2"/>
<rect x="393.678" y="425.72" width="8.34941" height="8.2482" transform="rotate(-24.6514 393.678 425.72)" stroke="#1A0202" stroke-width="0.5"/>
<rect x="406.678" y="419.72" width="8.34941" height="8.2482" transform="rotate(-24.6514 406.678 419.72)" fill="#FFF9F9"/>
<rect x="406.678" y="419.72" width="8.34941" height="8.2482" transform="rotate(-24.6514 406.678 419.72)" fill="black" fill-opacity="0.2"/>
<rect x="406.678" y="419.72" width="8.34941" height="8.2482" transform="rotate(-24.6514 406.678 419.72)" stroke="#1A0202" stroke-width="0.5"/>
<rect x="411.678" y="434.72" width="8.34941" height="8.2482" transform="rotate(-24.6514 411.678 434.72)" fill="#FFF9F9"/>
<rect x="411.678" y="434.72" width="8.34941" height="8.2482" transform="rotate(-24.6514 411.678 434.72)" fill="black" fill-opacity="0.2"/>
<rect x="411.678" y="434.72" width="8.34941" height="8.2482" transform="rotate(-24.6514 411.678 434.72)" stroke="#1A0202" stroke-width="0.5"/>
<rect x="418.678" y="413.72" width="8.34941" height="8.2482" transform="rotate(-24.6514 418.678 413.72)" fill="#FFF9F9"/>
<rect x="418.678" y="413.72" width="8.34941" height="8.2482" transform="rotate(-24.6514 418.678 413.72)" fill="black" fill-opacity="0.2"/>
<rect x="418.678" y="413.72" width="8.34941" height="8.2482" transform="rotate(-24.6514 418.678 413.72)" stroke="#1A0202" stroke-width="0.5"/>
<rect x="424.678" y="428.72" width="8.34941" height="8.2482" transform="rotate(-24.6514 424.678 428.72)" fill="#FFF9F9"/>
<rect x="424.678" y="428.72" width="8.34941" height="8.2482" transform="rotate(-24.6514 424.678 428.72)" fill="black" fill-opacity="0.2"/>
<rect x="424.678" y="428.72" width="8.34941" height="8.2482" transform="rotate(-24.6514 424.678 428.72)" stroke="#1A0202" stroke-width="0.5"/>
<rect x="380.678" y="431.72" width="8.34941" height="8.2482" transform="rotate(-24.6514 380.678 431.72)" fill="#FFF9F9"/>
<rect x="380.678" y="431.72" width="8.34941" height="8.2482" transform="rotate(-24.6514 380.678 431.72)" fill="black" fill-opacity="0.2"/>
<rect x="380.678" y="431.72" width="8.34941" height="8.2482" transform="rotate(-24.6514 380.678 431.72)" stroke="#1A0202" stroke-width="0.5"/>
<rect x="368.678" y="437.72" width="8.34941" height="8.2482" transform="rotate(-24.6514 368.678 437.72)" fill="#FFF9F9"/>
<rect x="368.678" y="437.72" width="8.34941" height="8.2482" transform="rotate(-24.6514 368.678 437.72)" fill="black" fill-opacity="0.2"/>
<rect x="368.678" y="437.72" width="8.34941" height="8.2482" transform="rotate(-24.6514 368.678 437.72)" stroke="#1A0202" stroke-width="0.5"/>
<rect x="343.678" y="411.889" width="8.75439" height="8.2482" transform="rotate(-24.6514 343.678 411.889)" fill="#FFF9F9"/>
<rect x="343.678" y="411.889" width="8.75439" height="8.2482" transform="rotate(-24.6514 343.678 411.889)" fill="black" fill-opacity="0.2"/>
<rect x="343.678" y="411.889" width="8.75439" height="8.2482" transform="rotate(-24.6514 343.678 411.889)" stroke="#1A0202" stroke-width="0.5"/>
<rect x="336.678" y="433.72" width="8.34941" height="8.2482" transform="rotate(-24.6514 336.678 433.72)" fill="#FFF9F9"/>
<rect x="336.678" y="433.72" width="8.34941" height="8.2482" transform="rotate(-24.6514 336.678 433.72)" fill="black" fill-opacity="0.2"/>
<rect x="336.678" y="433.72" width="8.34941" height="8.2482" transform="rotate(-24.6514 336.678 433.72)" stroke="#1A0202" stroke-width="0.5"/>
<rect x="350.678" y="427.72" width="8.34941" height="8.2482" transform="rotate(-24.6514 350.678 427.72)" fill="#FFF9F9"/>
<rect x="350.678" y="427.72" width="8.34941" height="8.2482" transform="rotate(-24.6514 350.678 427.72)" fill="black" fill-opacity="0.2"/>
<rect x="350.678" y="427.72" width="8.34941" height="8.2482" transform="rotate(-24.6514 350.678 427.72)" stroke="#1A0202" stroke-width="0.5"/>
<rect x="386.678" y="410.72" width="8.34941" height="8.2482" transform="rotate(-24.6514 386.678 410.72)" fill="#FFF9F9"/>
<rect x="386.678" y="410.72" width="8.34941" height="8.2482" transform="rotate(-24.6514 386.678 410.72)" fill="black" fill-opacity="0.2"/>
<rect x="386.678" y="410.72" width="8.34941" height="8.2482" transform="rotate(-24.6514 386.678 410.72)" stroke="#1A0202" stroke-width="0.5"/>
<rect x="411.678" y="398.72" width="8.34941" height="8.2482" transform="rotate(-24.6514 411.678 398.72)" fill="#FFF9F9"/>
<rect x="411.678" y="398.72" width="8.34941" height="8.2482" transform="rotate(-24.6514 411.678 398.72)" fill="black" fill-opacity="0.2"/>
<rect x="411.678" y="398.72" width="8.34941" height="8.2482" transform="rotate(-24.6514 411.678 398.72)" stroke="#1A0202" stroke-width="0.5"/>
<rect x="399.678" y="404.72" width="8.34941" height="8.2482" transform="rotate(-24.6514 399.678 404.72)" fill="#FFF9F9"/>
<rect x="399.678" y="404.72" width="8.34941" height="8.2482" transform="rotate(-24.6514 399.678 404.72)" fill="black" fill-opacity="0.2"/>
<rect x="399.678" y="404.72" width="8.34941" height="8.2482" transform="rotate(-24.6514 399.678 404.72)" stroke="#1A0202" stroke-width="0.5"/>
<rect x="374.678" y="416.72" width="8.34941" height="8.2482" transform="rotate(-24.6514 374.678 416.72)" fill="#FFF9F9"/>
<rect x="374.678" y="416.72" width="8.34941" height="8.2482" transform="rotate(-24.6514 374.678 416.72)" fill="black" fill-opacity="0.2"/>
<rect x="374.678" y="416.72" width="8.34941" height="8.2482" transform="rotate(-24.6514 374.678 416.72)" stroke="#1A0202" stroke-width="0.5"/>
<rect x="363.678" y="421.72" width="8.34941" height="8.2482" transform="rotate(-24.6514 363.678 421.72)" fill="#FFF9F9"/>
<rect x="363.678" y="421.72" width="8.34941" height="8.2482" transform="rotate(-24.6514 363.678 421.72)" fill="black" fill-opacity="0.2"/>
<rect x="363.678" y="421.72" width="8.34941" height="8.2482" transform="rotate(-24.6514 363.678 421.72)" stroke="#1A0202" stroke-width="0.5"/>
<line x1="333.422" y1="425.952" x2="337.272" y2="415.462" stroke="black" stroke-width="0.7"/>
<path d="M347.347 418.906L351.347 408.406" stroke="black" stroke-width="0.7"/>
<path d="M360.347 413.406L364.347 402.406" stroke="black" stroke-width="0.7"/>
</svg>
